<?xml version="1.0" encoding="UTF-8"?> <svg xmlns="http://www.w3.org/2000/svg" width="300" height="300" viewBox="0 0 300 300" fill="none"><path d="M299.648 139.821C294.026 57.1731 222.47 -5.27009 139.821 0.351692C98.6489 3.1521 62.4983 22.3218 37.2713 51.0674L37.2715 51.0673L37.2011 51.0165C37.0311 51.2517 36.8723 51.4837 36.7035 51.7188C11.645 80.6047 -2.44854 119.013 0.351528 160.179C0.618351 164.102 1.08009 167.962 1.63804 171.789C1.63821 171.79 1.63821 171.79 1.63838 171.791C1.66351 171.964 1.68915 172.136 1.71345 172.309C2.09063 174.834 2.52857 177.336 3.02826 179.815C3.02859 179.816 3.02876 179.818 3.02909 179.819C3.03825 179.864 3.0469 179.909 3.05572 179.954C3.51064 182.199 4.01599 184.423 4.56894 186.629L4.56994 186.633C4.57044 186.635 4.57094 186.637 4.57128 186.638C21.8945 255.723 86.6221 304.652 160.179 299.648C242.827 294.027 305.27 222.469 299.648 139.821V139.821ZM266.998 142.042C267.69 152.217 267.05 162.18 265.238 171.765C265.215 171.71 265.198 171.652 265.175 171.598V171.597C254.301 145.016 232.79 125.826 213.873 115.225C217.702 70.1849 202.422 51.2099 185.128 48.1225C184.658 48.032 184.185 47.9548 183.704 47.8952C169.979 46.1348 157.427 55.8365 155.669 69.5612C153.908 83.2866 163.61 95.8387 177.335 97.5997C178.532 97.7512 179.716 97.7933 180.889 97.7748C180.965 99.2952 181.013 100.91 181.026 102.599C165.036 98.6366 150.088 97.861 136.46 99.0863C131.364 99.426 126.264 100.068 121.192 101.016C122.893 85.8072 128.599 68.7324 139.671 56.2368C150.374 44.1576 166.287 37.2342 183.646 39.0109C186.937 39.3476 190.448 40.1556 193.609 41.2172C193.754 41.266 193.909 41.3073 194.052 41.3572C194.054 41.3544 194.057 41.3506 194.059 41.3477C234.267 57.7274 263.858 95.8868 266.998 142.042ZM162.449 164.953C162.438 164.969 162.427 164.985 162.416 165.002C158.837 170.164 154.58 175.254 149.583 180.177C142.093 172.207 136.075 163.624 131.51 154.745C131.276 154.269 131.026 153.817 130.798 153.333C130.789 153.316 130.781 153.298 130.772 153.28C128.09 147.597 125.81 141.363 124.045 134.572C134.704 132.064 145.157 131.142 155.139 131.628C155.668 131.663 156.185 131.673 156.718 131.717C156.737 131.718 156.757 131.72 156.777 131.721C163.029 132.239 169.557 133.379 176.31 135.241C173.153 145.721 168.726 155.231 163.316 163.63C163.021 164.071 162.754 164.513 162.449 164.953H162.449ZM111.194 39.3593C111.166 39.3954 111.135 39.4295 111.107 39.4657L111.107 39.4658C93.5329 62.1624 87.6658 90.3693 87.9371 112.048C47.0196 131.252 38.2272 153.972 44.2004 170.492C44.3569 170.944 44.5268 171.393 44.7154 171.839C50.0537 184.606 64.7316 190.625 77.4965 185.285C90.2633 179.947 96.2827 165.269 90.9458 152.503C90.4782 151.39 89.9226 150.343 89.3202 149.337C90.6134 148.501 92.0021 147.643 93.4767 146.777C98.0402 162.609 104.791 176.001 112.668 187.192C115.505 191.428 118.604 195.515 121.953 199.426C107.93 205.56 90.2861 209.158 73.9251 205.817C58.1124 202.587 44.1603 192.268 37.0195 176.346C35.6659 173.328 34.6104 169.884 33.9489 166.616C33.5419 163.76 33.2009 160.882 33.0021 157.958C29.3472 104.227 62.6827 56.3923 111.194 39.3593V39.3593ZM157.958 266.998C126.051 269.168 96.225 258.285 73.6832 238.94C102.126 242.811 129.487 233.788 148.126 222.713C185.232 248.568 209.313 244.825 220.636 231.389C220.95 231.027 221.253 230.656 221.545 230.269C229.933 219.263 227.807 203.542 216.8 195.157C205.793 186.769 190.072 188.896 181.685 199.901C180.955 200.862 180.326 201.866 179.756 202.891C178.395 202.194 176.966 201.425 175.489 200.587C186.929 188.713 195.08 176.148 200.837 163.724C203.091 159.141 205.085 154.403 206.801 149.536C219.131 158.614 231.08 172.101 236.369 187.949C241.478 203.258 239.518 220.501 229.3 234.646C227.363 237.327 224.907 239.964 222.407 242.171C222.371 242.203 222.335 242.237 222.3 242.27C204.423 256.32 182.304 265.342 157.958 266.998H157.958Z" fill="url(#paint0_linear_102_141)"></path><path style="mix-blend-mode:overlay" opacity="0.9" d="M185.128 48.1226C184.658 48.032 184.185 47.9548 183.704 47.8952C181.276 47.5838 178.888 47.648 176.586 48.013C190.936 55.8193 201.398 77.5698 195.898 120.474C194.076 134.684 189.85 148.206 183.749 160.615C178.804 171.284 172.078 182.055 163.035 192.406C167.378 195.663 171.612 198.389 175.489 200.587C186.929 188.713 195.08 176.148 200.837 163.724C206.939 151.316 211.164 137.793 212.986 123.584C219.535 72.4989 203.457 51.3947 185.128 48.1226V48.1226Z" fill="url(#paint1_radial_102_141)"></path><g style="mix-blend-mode:overlay" opacity="0.8"><path d="M195.898 120.474C201.398 77.5698 190.936 55.8193 176.586 48.013C176.026 48.1019 175.476 48.2213 174.927 48.3473C188.976 56.4229 199.084 78.1529 193.658 120.474C191.836 134.684 187.611 148.206 181.509 160.615C176.729 170.931 170.264 181.339 161.669 191.374C162.127 191.728 162.581 192.065 163.035 192.406C172.078 182.055 178.805 171.284 183.749 160.615C189.85 148.206 194.076 134.684 195.898 120.474V120.474Z" fill="white"></path></g><path style="mix-blend-mode:overlay" opacity="0.5" d="M141.356 217.784C140.008 216.757 138.71 215.681 137.412 214.606C116.236 223.441 86.8805 228.98 57.7321 222.216C62.5053 228.3 67.8321 233.918 73.6832 238.94C102.126 242.811 129.487 233.788 148.126 222.714C145.914 221.172 143.662 219.541 141.356 217.784V217.784Z" fill="url(#paint2_radial_102_141)"></path><path style="mix-blend-mode:overlay" opacity="0.6" d="M137.412 214.606C136.764 214.068 136.111 213.536 135.475 212.987C114.138 221.513 84.6492 226.61 55.5662 219.362C56.2748 220.324 56.9953 221.277 57.7321 222.216C86.8805 228.98 116.236 223.441 137.412 214.606V214.606Z" fill="url(#paint3_linear_102_141)"></path><path style="mix-blend-mode:overlay" opacity="0.9" d="M44.2072 170.517C44.3637 170.969 44.5336 171.417 44.7222 171.863C45.6669 174.123 46.9163 176.158 48.3833 177.969C47.969 161.639 61.5745 141.703 101.481 125.015C114.698 119.487 128.521 116.385 142.318 115.465C154.03 114.412 166.722 114.853 180.207 117.508C180.856 112.119 181.1 107.089 181.065 102.632C165.062 98.6619 150.104 97.8852 136.467 99.1113C122.67 100.031 108.846 103.133 95.6293 108.66C48.1144 128.531 37.8764 153.007 44.2072 170.517V170.517Z" fill="url(#paint4_radial_102_141)"></path><g style="mix-blend-mode:overlay" opacity="0.8"><path d="M101.481 125.015C61.5745 141.703 47.969 161.639 48.3833 177.969C48.7404 178.41 49.1187 178.826 49.5022 179.238C49.4718 163.035 63.2365 143.416 102.6 126.954C115.817 121.427 129.641 118.325 143.438 117.405C154.762 116.387 167.009 116.781 179.996 119.207C180.074 118.634 180.139 118.072 180.207 117.508C166.722 114.853 154.03 114.412 142.318 115.465C128.521 116.385 114.698 119.487 101.481 125.015V125.015Z" fill="white"></path></g><path style="mix-blend-mode:overlay" opacity="0.4" d="M213.024 123.594C212.809 125.275 212.526 126.937 212.244 128.599C230.483 142.52 249.958 165.173 258.674 193.798C261.557 186.623 263.759 179.2 265.182 171.622C254.313 145.055 232.819 125.87 213.908 115.266C213.68 117.953 213.393 120.719 213.024 123.594Z" fill="url(#paint5_radial_102_141)"></path><path style="mix-blend-mode:overlay" opacity="0.5" d="M212.244 128.599C212.103 129.429 211.968 130.261 211.81 131.086C229.863 145.3 249.022 168.29 257.286 197.101C257.765 196.006 258.23 194.906 258.674 193.798C249.958 165.173 230.483 142.52 212.244 128.599V128.599Z" fill="url(#paint6_linear_102_141)"></path><path style="mix-blend-mode:overlay" opacity="0.9" d="M220.653 231.355C220.967 230.993 221.27 230.622 221.562 230.235C223.046 228.288 224.184 226.188 225.019 224.012C211.084 232.536 187.017 230.721 152.611 204.505C141.215 195.823 131.617 185.402 123.922 173.914C117.154 164.297 111.19 153.086 106.746 140.08C101.755 142.212 97.2766 144.516 93.4343 146.775C97.9978 162.618 104.804 175.961 112.685 187.158C120.38 198.647 129.978 209.067 141.373 217.75C182.339 248.964 208.655 245.592 220.653 231.355V231.355Z" fill="url(#paint7_radial_102_141)"></path><g style="mix-blend-mode:overlay" opacity="0.8"><path d="M152.611 204.505C187.017 230.721 211.084 232.536 225.019 224.012C225.222 223.482 225.394 222.946 225.559 222.408C211.541 230.536 187.669 228.425 153.73 202.566C142.335 193.883 132.737 183.463 125.042 171.975C118.498 162.677 112.717 151.873 108.323 139.413C107.789 139.632 107.269 139.857 106.746 140.08C111.19 153.086 117.154 164.297 123.922 173.914C131.617 185.402 141.215 195.823 152.611 204.505H152.611Z" fill="white"></path></g><path style="mix-blend-mode:overlay" opacity="0.3" d="M95.6083 108.616C97.1724 107.962 98.7528 107.376 100.333 106.79C103.269 84.0332 113.15 55.8407 133.582 33.9796C125.927 35.0713 118.398 36.8754 111.123 39.4319C93.5496 62.1286 87.6828 90.3356 87.9542 112.014C90.3957 110.869 92.9343 109.734 95.6083 108.616V108.616Z" fill="url(#paint8_radial_102_141)"></path><path style="mix-blend-mode:overlay" opacity="0.4" d="M100.333 106.79C101.123 106.497 101.91 106.198 102.704 105.921C105.987 83.1801 116.318 55.0933 137.137 33.5308C135.949 33.6633 134.764 33.8112 133.582 33.9796C113.15 55.8407 103.269 84.0332 100.333 106.79V106.79Z" fill="url(#paint9_linear_102_141)"></path> opacity="0.4" d="M139.821 0.351699C98.6489 3.15211 62.4983 22.3218 37.2713 51.0674C37.0807 51.2847 36.8913 51.5024 36.702 51.7208L36.7035 51.7188C41.6149 56.5905 57.666 66.1966 64.1715 70.2024C76.9448 56.4655 93.0025 45.7467 111.194 39.3593C112.465 37.7222 113.782 36.107 115.177 34.5327C132.12 15.4132 155.259 5.30751 182.096 5.30751C185.083 5.30751 191.167 5.78298 191.298 5.79264C175.028 1.11832 157.688 -0.863634 139.821 0.351699Z" fill="url(#paint10_linear_102_141)"></path><defs><linearGradient id="paint0_linear_102_141" x1="47.6338" y1="252.373" x2="238.908" y2="61.0981" gradientUnits="userSpaceOnUse"><stop offset="0.001139" stop-color="#E6007A"></stop><stop offset="0.207149" stop-color="#703AC2"></stop><stop offset="0.456011" stop-color="#0070EB"></stop><stop offset="0.768132" stop-color="#0297FB"></stop><stop offset="1" stop-color="#0AE2FF"></stop></linearGradient><radialGradient id="paint1_radial_102_141" cx="0" cy="0" r="1" gradientUnits="userSpaceOnUse" gradientTransform="translate(192.756 119.637) scale(57.0329 57.0329)"><stop stop-color="white"></stop><stop offset="1" stop-color="white" stop-opacity="0"></stop></radialGradient><radialGradient id="paint2_radial_102_141" cx="0" cy="0" r="1" gradientUnits="userSpaceOnUse" gradientTransform="translate(108.454 225.44) scale(33.1822 33.1822)"><stop stop-color="white"></stop><stop offset="1" stop-color="white" stop-opacity="0"></stop></radialGradient><linearGradient id="paint3_linear_102_141" x1="58.6576" y1="219.827" x2="90.6431" y2="219.383" gradientUnits="userSpaceOnUse"><stop stop-color="white" stop-opacity="0"></stop><stop offset="1" stop-color="white"></stop></linearGradient><radialGradient id="paint4_radial_102_141" cx="0" cy="0" r="1" gradientUnits="userSpaceOnUse" gradientTransform="translate(102.326 128.153) rotate(-120) scale(57.0329 57.0329)"><stop stop-color="white"></stop><stop offset="1" stop-color="white" stop-opacity="0"></stop></radialGradient><radialGradient id="paint5_radial_102_141" cx="0" cy="0" r="1" gradientUnits="userSpaceOnUse" gradientTransform="translate(236.106 148.259) rotate(-120) scale(33.1822 33.1822)"><stop stop-color="white"></stop><stop offset="1" stop-color="white" stop-opacity="0"></stop></radialGradient><linearGradient id="paint6_linear_102_141" x1="256.143" y1="194.191" x2="239.766" y2="166.713" gradientUnits="userSpaceOnUse"><stop stop-color="white" stop-opacity="0"></stop><stop offset="1" stop-color="white"></stop></linearGradient><radialGradient id="paint7_radial_102_141" cx="0" cy="0" r="1" gradientUnits="userSpaceOnUse" gradientTransform="translate(152.213 199.566) rotate(120) scale(57.0329 57.0329)"><stop stop-color="white"></stop><stop offset="1" stop-color="white" stop-opacity="0"></stop></radialGradient><radialGradient id="paint8_radial_102_141" cx="0" cy="0" r="1" gradientUnits="userSpaceOnUse" gradientTransform="translate(105.429 76.2943) rotate(120) scale(33.1822 33.1822)"><stop stop-color="white"></stop><stop offset="1" stop-color="white" stop-opacity="0"></stop></radialGradient><linearGradient id="paint9_linear_102_141" x1="135.188" y1="35.9754" x2="119.58" y2="63.8978" gradientUnits="userSpaceOnUse"><stop stop-color="white" stop-opacity="0"></stop><stop offset="1" stop-color="white"></stop></linearGradient><linearGradient id="paint10_linear_102_141" x1="142.142" y1="21.7814" x2="93.2748" y2="35.9972" gradientUnits="userSpaceOnUse"><stop stop-color="#231F20"></stop><stop offset="1" stop-color="white"></stop></linearGradient><linearGradient id="paint11_linear_102_141" x1="49.7928" y1="208.156" x2="90.6632" y2="250.803" gradientUnits="userSpaceOnUse"><stop stop-color="#231F20"></stop><stop offset="1" stop-color="white"></stop></linearGradient><linearGradient id="paint12_linear_102_141" x1="269.146" y1="201.728" x2="283.361" y2="158.488" gradientUnits="userSpaceOnUse"><stop stop-color="#231F20"></stop><stop offset="1" stop-color="white"></stop></linearGradient><linearGradient id="paint13_linear_102_141" x1="164.408" y1="46.5082" x2="229.924" y2="61.5096" gradientUnits="userSpaceOnUse"><stop stop-color="#231F20"></stop><stop offset="1" stop-color="white"></stop></linearGradient><linearGradient id="paint14_linear_102_141" x1="232.422" y1="214.224" x2="186.673" y2="263.462" gradientUnits="userSpaceOnUse"><stop stop-color="#231F20"></stop><stop offset="1" stop-color="white"></stop></linearGradient><linearGradient id="paint15_linear_102_141" x1="53.1836" y1="189.302" x2="33.4169" y2="125.063" gradientUnits="userSpaceOnUse"><stop stop-color="#231F20"></stop><stop offset="1" stop-color="white"></stop></linearGradient><linearGradient id="paint16_linear_102_141" x1="178.731" y1="70.6726" x2="158" y2="91.4039" gradientUnits="userSpaceOnUse"><stop stop-color="#231F20"></stop><stop offset="1" stop-color="white"></stop></linearGradient><linearGradient id="paint17_linear_102_141" x1="66.9347" y1="164.782" x2="95.2543" y2="172.37" gradientUnits="userSpaceOnUse"><stop stop-color="#231F20"></stop><stop offset="1" stop-color="white"></stop></linearGradient><linearGradient id="paint18_linear_102_141" x1="204.327" y1="214.534" x2="196.738" y2="186.214" gradientUnits="userSpaceOnUse"><stop stop-color="#231F20"></stop><stop offset="1" stop-color="white"></stop></linearGradient><linearGradient id="paint19_linear_102_141" x1="161.22" y1="189.352" x2="173.659" y2="172.174" gradientUnits="userSpaceOnUse"><stop stop-color="#231F20"></stop><stop offset="1" stop-color="white"></stop></linearGradient><linearGradient id="paint20_linear_102_141" x1="118.389" y1="181.915" x2="93.5116" y2="193.761" gradientUnits="userSpaceOnUse"><stop stop-color="#231F20"></s<path style="mix-blend-mode:multiply"top><stop offset="1" stop-color="white"></stop></linearGradient><linearGradient id="paint21_linear_102_141" x1="109.362" y1="140.504" x2="117.062" y2="156.496" gradientUnits="userSpaceOnUse"><stop stop-color="#231F20"></stop><stop offset="1" stop-color="white"></stop></linearGradient><linearGradient id="paint22_linear_102_141" x1="145.183" y1="91.112" x2="139.852" y2="72.7499" gradientUnits="userSpaceOnUse"><stop stop-color="#231F20"></stop><stop offset="1" stop-color="white"></stop></linearGradient><linearGradient id="paint23_linear_102_141" x1="202.637" y1="175.182" x2="218.038" y2="178.736" gradientUnits="userSpaceOnUse"><stop stop-color="#231F20"></stop><stop offset="1" stop-color="white"></stop></linearGradient><linearGradient id="paint24_linear_102_141" x1="178.468" y1="123.158" x2="158.922" y2="119.604" gradientUnits="userSpaceOnUse"><stop stop-color="#231F20"></stop><stop offset="1" stop-color="white"></stop></linearGradient></defs></svg> 